STARTFONT 2.1
FONT -FontForge-Henny Penny-Book-R-Normal--14-140-72-72-P-79-ISO10646-1
SIZE 14 72 72
FONTBOUNDINGBOX 19 25 -2 -9
COMMENT "Generated by fontforge, http://fontforge.sourceforge.net"
COMMENT "Copyright (c) 2012, Brownfox (gayaneh.b@gmail.com), with Reserved Font Name "Henny Penny""
STARTPROPERTIES 39
FOUNDRY "FontForge"
FAMILY_NAME "Henny Penny"
WEIGHT_NAME "Book"
SLANT "R"
SETWIDTH_NAME "Normal"
ADD_STYLE_NAME ""
PIXEL_SIZE 14
POINT_SIZE 140
RESOLUTION_X 72
RESOLUTION_Y 72
SPACING "P"
AVERAGE_WIDTH 79
CHARSET_REGISTRY "ISO10646"
CHARSET_ENCODING "1"
FONTNAME_REGISTRY ""
CHARSET_COLLECTIONS "ISO10646-1"
FONT_NAME "HennyPenny-Regular"
FACE_NAME "Henny Penny"
COPYRIGHT "Copyright (c) 2012, Brownfox (gayaneh.b@gmail.com), with Reserved Font Name "Henny Penny""
FONT_VERSION "1.001"
FONT_ASCENT 11
FONT_DESCENT 3
UNDERLINE_POSITION -1
UNDERLINE_THICKNESS 1
X_HEIGHT 8
CAP_HEIGHT 10
RAW_ASCENT 799
RAW_DESCENT 200
NORM_SPACE 4
RELATIVE_WEIGHT 40
RELATIVE_SETWIDTH 50
SUPERSCRIPT_X 0
SUPERSCRIPT_Y 4
SUPERSCRIPT_SIZE 8
SUBSCRIPT_X 0
SUBSCRIPT_Y 1
SUBSCRIPT_SIZE 8
AVG_LOWERCASE_WIDTH 70
AVG_UPPERCASE_WIDTH 99
ENDPROPERTIES
CHARS 233
STARTCHAR space
ENCODING 32
SWIDTH 270 0
DWIDTH 4 0
BBX 1 1 0 0
BITMAP
00
ENDCHAR
STARTCHAR exclam
ENCODING 33
SWIDTH 249 0
DWIDTH 3 0
BBX 2 14 1 -1
BITMAP
C0
C0
C0
C0
C0
40
40
40
80
80
00
00
C0
C0
ENDCHAR
STARTCHAR quotedbl
ENCODING 34
SWIDTH 292 0
DWIDTH 4 0
BBX 3 5 1 6
BITMAP
A0
A0
A0
A0
A0
ENDCHAR
STARTCHAR numbersign
ENCODING 35
SWIDTH 1030 0
DWIDTH 14 0
BBX 13 15 1 -4
BITMAP
0200
0280
0480
0500
FFF0
0A08
0A00
14E0
FF00
2800
2800
4800
5000
1000
2000
ENDCHAR
STARTCHAR dollar
ENCODING 36
SWIDTH 799 0
DWIDTH 11 0
BBX 9 16 1 -3
BITMAP
0400
0480
1F00
1500
3500
1900
1C00
0E00
0E00
4B00
5300
5300
7200
9C00
2000
2000
ENDCHAR
STARTCHAR percent
ENCODING 37
SWIDTH 789 0
DWIDTH 11 0
BBX 10 13 1 0
BITMAP
7080
8900
8A00
CA00
7400
0800
0800
1380
2640
4440
4440
8380
8000
ENDCHAR
STARTCHAR ampersand
ENCODING 38
SWIDTH 773 0
DWIDTH 11 0
BBX 10 13 0 -1
BITMAP
3800
4800
4800
5000
7100
6300
6D00
D100
C900
CE00
E640
7B80
0100
ENDCHAR
STARTCHAR quotesingle
ENCODING 39
SWIDTH 174 0
DWIDTH 2 0
BBX 1 4 1 7
BITMAP
80
80
80
80
ENDCHAR
STARTCHAR parenleft
ENCODING 40
SWIDTH 431 0
DWIDTH 6 0
BBX 6 20 0 -6
BITMAP
20
20
40
40
40
C0
C0
80
80
80
C0
C0
C0
40
60
20
30
10
08
04
ENDCHAR
STARTCHAR parenright
ENCODING 41
SWIDTH 443 0
DWIDTH 6 0
BBX 6 13 0 -3
BITMAP
60
10
18
0C
0C
0C
0C
0C
0C
08
18
30
C0
ENDCHAR
STARTCHAR asterisk
ENCODING 42
SWIDTH 490 0
DWIDTH 7 0
BBX 5 6 1 7
BITMAP
20
28
28
F0
50
88
ENDCHAR
STARTCHAR plus
ENCODING 43
SWIDTH 440 0
DWIDTH 6 0
BBX 6 7 0 1
BITMAP
10
10
10
FC
10
10
10
ENDCHAR
STARTCHAR comma
ENCODING 44
SWIDTH 251 0
DWIDTH 4 0
BBX 2 5 1 -3
BITMAP
C0
C0
40
80
80
ENDCHAR
STARTCHAR hyphen
ENCODING 45
SWIDTH 436 0
DWIDTH 6 0
BBX 4 1 1 3
BITMAP
F0
ENDCHAR
STARTCHAR period
ENCODING 46
SWIDTH 238 0
DWIDTH 3 0
BBX 2 2 1 0
BITMAP
C0
C0
ENDCHAR
STARTCHAR slash
ENCODING 47
SWIDTH 690 0
DWIDTH 10 0
BBX 10 13 0 0
BITMAP
00C0
0080
0100
0200
0200
0400
0800
0800
1000
2000
4000
4000
8000
ENDCHAR
STARTCHAR zero
ENCODING 48
SWIDTH 723 0
DWIDTH 10 0
BBX 10 10 0 1
BITMAP
1E00
6300
4180
C080
C0C0
C0C0
C080
4080
6100
1E00
ENDCHAR
STARTCHAR one
ENCODING 49
SWIDTH 505 0
DWIDTH 7 0
BBX 7 12 0 0
BITMAP
20
20
70
B0
10
10
10
10
18
18
3C
62
ENDCHAR
STARTCHAR two
ENCODING 50
SWIDTH 534 0
DWIDTH 7 0
BBX 8 13 0 -1
BITMAP
3C
4E
86
86
84
04
08
10
20
40
31
0E
04
ENDCHAR
STARTCHAR three
ENCODING 51
SWIDTH 511 0
DWIDTH 7 0
BBX 7 11 0 -1
BITMAP
F8
88
90
20
18
0C
84
86
86
8C
78
ENDCHAR
STARTCHAR four
ENCODING 52
SWIDTH 712 0
DWIDTH 10 0
BBX 10 14 0 -2
BITMAP
0400
0400
0C00
1400
2400
4400
8600
6600
1E80
0380
0200
0300
0700
00C0
ENDCHAR
STARTCHAR five
ENCODING 53
SWIDTH 757 0
DWIDTH 11 0
BBX 11 13 0 -1
BITMAP
0220
07C0
09C0
1080
1800
0700
8300
8180
8180
8180
8300
4300
3C00
ENDCHAR
STARTCHAR six
ENCODING 54
SWIDTH 598 0
DWIDTH 8 0
BBX 8 11 0 0
BITMAP
1E
61
41
DE
E3
C1
C1
C1
41
62
1C
ENDCHAR
STARTCHAR seven
ENCODING 55
SWIDTH 507 0
DWIDTH 7 0
BBX 7 11 0 0
BITMAP
02
FE
8C
88
88
08
10
10
30
30
70
ENDCHAR
STARTCHAR eight
ENCODING 56
SWIDTH 476 0
DWIDTH 7 0
BBX 7 12 0 -1
BITMAP
3C
64
64
64
38
3C
4E
42
82
82
46
3C
ENDCHAR
STARTCHAR nine
ENCODING 57
SWIDTH 601 0
DWIDTH 8 0
BBX 8 11 0 0
BITMAP
3C
46
C3
83
C3
43
3F
03
06
86
78
ENDCHAR
STARTCHAR colon
ENCODING 58
SWIDTH 246 0
DWIDTH 3 0
BBX 2 7 1 0
BITMAP
C0
C0
00
00
00
C0
C0
ENDCHAR
STARTCHAR semicolon
ENCODING 59
SWIDTH 266 0
DWIDTH 4 0
BBX 2 9 1 -3
BITMAP
C0
C0
00
00
00
C0
C0
40
80
ENDCHAR
STARTCHAR less
ENCODING 60
SWIDTH 522 0
DWIDTH 7 0
BBX 6 7 1 1
BITMAP
08
10
20
C0
C0
30
0C
ENDCHAR
STARTCHAR equal
ENCODING 61
SWIDTH 655 0
DWIDTH 9 0
BBX 7 3 1 3
BITMAP
1E
E0
FE
ENDCHAR
STARTCHAR greater
ENCODING 62
SWIDTH 533 0
DWIDTH 7 0
BBX 6 7 1 1
BITMAP
80
40
30
08
0C
10
60
ENDCHAR
STARTCHAR question
ENCODING 63
SWIDTH 564 0
DWIDTH 8 0
BBX 7 14 0 -1
BITMAP
38
4C
C6
C6
E6
EC
18
20
40
80
60
00
30
30
ENDCHAR
STARTCHAR at
ENCODING 64
SWIDTH 898 0
DWIDTH 13 0
BBX 11 14 1 -4
BITMAP
0F00
30C0
6040
4020
8F20
9320
B120
B120
B120
B340
5EC0
4300
3100
1E00
ENDCHAR
STARTCHAR A
ENCODING 65
SWIDTH 784 0
DWIDTH 11 0
BBX 11 13 0 -2
BITMAP
0400
3C00
0E00
1200
1300
1300
1F00
2380
2180
E180
30C0
00E0
0300
ENDCHAR
STARTCHAR B
ENCODING 66
SWIDTH 685 0
DWIDTH 10 0
BBX 9 14 0 -2
BITMAP
9E00
6300
2300
2300
2200
2400
3F00
2380
2180
3180
3180
3100
7E00
8000
ENDCHAR
STARTCHAR C
ENCODING 67
SWIDTH 742 0
DWIDTH 10 0
BBX 10 13 0 -1
BITMAP
0080
0080
1F80
7180
6080
C040
C000
C000
C040
E040
6040
3080
1F00
ENDCHAR
STARTCHAR D
ENCODING 68
SWIDTH 726 0
DWIDTH 10 0
BBX 10 12 0 -3
BITMAP
FF00
6180
20C0
20C0
20C0
20C0
2180
3180
3E00
6000
4000
8000
ENDCHAR
STARTCHAR E
ENCODING 69
SWIDTH 557 0
DWIDTH 8 0
BBX 8 12 0 -1
BITMAP
06
FA
20
20
28
38
38
38
30
31
31
FF
ENDCHAR
STARTCHAR F
ENCODING 70
SWIDTH 533 0
DWIDTH 7 0
BBX 7 12 1 -1
BITMAP
06
FA
62
62
68
28
38
28
28
20
20
F8
ENDCHAR
STARTCHAR G
ENCODING 71
SWIDTH 750 0
DWIDTH 11 0
BBX 11 10 0 0
BITMAP
0060
1E40
7180
6080
C080
C040
C780
C080
6180
3E00
ENDCHAR
STARTCHAR H
ENCODING 72
SWIDTH 743 0
DWIDTH 10 0
BBX 10 14 0 -2
BITMAP
8000
7C00
3040
3380
3080
3080
3080
3F80
3080
3080
3080
3080
33C0
F000
ENDCHAR
STARTCHAR I
ENCODING 73
SWIDTH 438 0
DWIDTH 6 0
BBX 8 14 -1 -3
BITMAP
7F
18
18
18
18
10
10
10
10
10
10
10
3C
C0
ENDCHAR
STARTCHAR J
ENCODING 74
SWIDTH 628 0
DWIDTH 9 0
BBX 10 16 0 -4
BITMAP
00C0
0F00
0700
0300
0200
0200
0200
0200
0200
0200
0200
0200
6600
F400
8800
7000
ENDCHAR
STARTCHAR K
ENCODING 75
SWIDTH 866 0
DWIDTH 12 0
BBX 12 13 0 -1
BITMAP
1200
FBC0
6200
2400
2400
2C00
3C00
2610
2310
2390
20F0
7000
0800
ENDCHAR
STARTCHAR L
ENCODING 76
SWIDTH 660 0
DWIDTH 9 0
BBX 9 9 0 1
BITMAP
FC00
3000
3000
3000
3000
3200
3100
3100
FF80
ENDCHAR
STARTCHAR M
ENCODING 77
SWIDTH 1089 0
DWIDTH 15 0
BBX 16 11 0 -1
BITMAP
000C
2010
1C10
1670
1258
1B98
1188
110C
100C
E01F
E020
ENDCHAR
STARTCHAR N
ENCODING 78
SWIDTH 799 0
DWIDTH 11 0
BBX 11 12 0 -2
BITMAP
F1E0
3840
5C40
4E80
4780
4380
4180
4180
4080
2000
2000
F000
ENDCHAR
STARTCHAR O
ENCODING 79
SWIDTH 747 0
DWIDTH 10 0
BBX 10 10 0 0
BITMAP
1E00
6180
41C0
C0C0
C0C0
C0C0
C0C0
60C0
7180
1F00
ENDCHAR
STARTCHAR P
ENCODING 80
SWIDTH 623 0
DWIDTH 9 0
BBX 9 12 0 -1
BITMAP
FF00
1980
1180
1180
1180
1F00
1000
1000
1000
1800
3800
7E00
ENDCHAR
STARTCHAR Q
ENCODING 81
SWIDTH 804 0
DWIDTH 11 0
BBX 16 16 0 -6
BITMAP
1F00
2180
40C0
C0C0
C060
C060
C360
C4C0
64C0
74C0
1F40
0060
0061
0061
0032
001C
ENDCHAR
STARTCHAR R
ENCODING 82
SWIDTH 869 0
DWIDTH 12 0
BBX 13 11 0 -1
BITMAP
FF00
3980
1180
1180
1300
1E00
1200
1308
1308
7988
04F0
ENDCHAR
STARTCHAR S
ENCODING 83
SWIDTH 517 0
DWIDTH 7 0
BBX 8 14 0 -2
BITMAP
02
1E
32
22
30
10
18
0C
06
86
83
43
66
9C
ENDCHAR
STARTCHAR T
ENCODING 84
SWIDTH 659 0
DWIDTH 9 0
BBX 9 14 1 -2
BITMAP
C000
FF80
8C80
8C80
8C80
0C00
0C00
0C00
0C00
0C00
0C00
0C00
1F00
3000
ENDCHAR
STARTCHAR U
ENCODING 85
SWIDTH 690 0
DWIDTH 10 0
BBX 11 10 0 1
BITMAP
1C00
F800
33E0
3080
3080
3080
3080
3080
1900
0E00
ENDCHAR
STARTCHAR V
ENCODING 86
SWIDTH 798 0
DWIDTH 11 0
BBX 12 11 0 0
BITMAP
0400
F810
3830
19E0
0C40
0C80
0680
0680
0300
0300
0200
ENDCHAR
STARTCHAR W
ENCODING 87
SWIDTH 1120 0
DWIDTH 16 0
BBX 17 12 0 -1
BITMAP
000800
000780
100200
200200
F10400
318400
128800
1CC800
1CF000
087000
086000
002000
ENDCHAR
STARTCHAR X
ENCODING 88
SWIDTH 868 0
DWIDTH 12 0
BBX 12 11 0 0
BITMAP
0400
FC80
1C60
0C50
0680
0300
0300
0D80
1880
F040
09F0
ENDCHAR
STARTCHAR Y
ENCODING 89
SWIDTH 796 0
DWIDTH 11 0
BBX 12 14 1 -2
BITMAP
1100
E0F0
6080
3100
1900
0E00
0600
0400
0600
0600
0600
0600
1E00
0100
ENDCHAR
STARTCHAR Z
ENCODING 90
SWIDTH 627 0
DWIDTH 9 0
BBX 8 12 1 -2
BITMAP
80
FC
98
98
10
30
22
22
61
43
5F
E0
ENDCHAR
STARTCHAR bracketleft
ENCODING 91
SWIDTH 344 0
DWIDTH 5 0
BBX 5 14 0 -3
BITMAP
70
48
40
40
40
C0
C0
C0
C0
C0
C0
C0
C0
F0
ENDCHAR
STARTCHAR backslash
ENCODING 92
SWIDTH 347 0
DWIDTH 5 0
BBX 5 15 0 -2
BITMAP
80
80
80
40
40
40
40
20
20
20
10
10
10
10
08
ENDCHAR
STARTCHAR bracketright
ENCODING 93
SWIDTH 334 0
DWIDTH 5 0
BBX 4 12 0 -3
BITMAP
E0
30
30
30
30
30
30
30
30
30
60
80
ENDCHAR
STARTCHAR asciicircum
ENCODING 94
SWIDTH 658 0
DWIDTH 9 0
BBX 8 3 1 8
BITMAP
10
7C
C7
ENDCHAR
STARTCHAR underscore
ENCODING 95
SWIDTH 678 0
DWIDTH 10 0
BBX 8 1 1 -4
BITMAP
FF
ENDCHAR
STARTCHAR grave
ENCODING 96
SWIDTH 278 0
DWIDTH 4 0
BBX 3 3 1 11
BITMAP
80
40
20
ENDCHAR
STARTCHAR a
ENCODING 97
SWIDTH 527 0
DWIDTH 7 0
BBX 8 10 0 -1
BITMAP
70
58
48
68
0C
7C
CC
8C
F5
06
ENDCHAR
STARTCHAR b
ENCODING 98
SWIDTH 582 0
DWIDTH 8 0
BBX 10 16 -2 0
BITMAP
1000
3000
F000
3000
1000
1000
1000
1000
1000
1700
1980
10C0
1080
1980
1F00
6000
ENDCHAR
STARTCHAR c
ENCODING 99
SWIDTH 437 0
DWIDTH 6 0
BBX 6 8 0 1
BITMAP
38
58
88
80
88
84
44
78
ENDCHAR
STARTCHAR d
ENCODING 100
SWIDTH 523 0
DWIDTH 7 0
BBX 8 13 0 1
BITMAP
04
1C
04
04
04
04
04
04
7C
C4
C4
C4
7F
ENDCHAR
STARTCHAR e
ENCODING 101
SWIDTH 434 0
DWIDTH 6 0
BBX 6 7 0 1
BITMAP
38
4C
CC
F8
C4
C4
78
ENDCHAR
STARTCHAR f
ENCODING 102
SWIDTH 299 0
DWIDTH 4 0
BBX 7 18 -1 -2
BITMAP
0E
12
26
2E
20
20
FC
20
20
20
20
20
20
20
30
30
38
40
ENDCHAR
STARTCHAR g
ENCODING 103
SWIDTH 567 0
DWIDTH 8 0
BBX 9 13 0 -5
BITMAP
0300
3D80
6780
6600
6600
3C00
2000
3C00
6300
4100
C100
6200
7C00
ENDCHAR
STARTCHAR h
ENCODING 104
SWIDTH 566 0
DWIDTH 8 0
BBX 9 15 -1 0
BITMAP
1000
7000
1000
1000
1000
1000
1000
3000
3000
2E00
3300
3300
2300
2300
F780
ENDCHAR
STARTCHAR i
ENCODING 105
SWIDTH 301 0
DWIDTH 4 0
BBX 4 11 0 1
BITMAP
60
60
00
E0
60
60
60
40
40
40
F0
ENDCHAR
STARTCHAR j
ENCODING 106
SWIDTH 367 0
DWIDTH 5 0
BBX 6 16 -1 -7
BITMAP
18
18
00
3C
0C
0C
04
04
04
04
04
E4
E4
88
88
70
ENDCHAR
STARTCHAR k
ENCODING 107
SWIDTH 567 0
DWIDTH 8 0
BBX 9 16 -1 -2
BITMAP
1000
F000
1000
1000
1000
1000
1400
1700
1400
1400
1C80
1480
1680
1380
1800
7E00
ENDCHAR
STARTCHAR l
ENCODING 108
SWIDTH 354 0
DWIDTH 5 0
BBX 6 13 -1 0
BITMAP
10
30
F0
30
30
30
10
10
10
10
10
10
3C
ENDCHAR
STARTCHAR m
ENCODING 109
SWIDTH 708 0
DWIDTH 10 0
BBX 10 7 0 1
BITMAP
2000
ED80
3680
2480
2E80
7180
0040
ENDCHAR
STARTCHAR n
ENCODING 110
SWIDTH 584 0
DWIDTH 8 0
BBX 8 10 0 -1
BITMAP
40
6E
F2
22
22
22
22
22
7E
01
ENDCHAR
STARTCHAR o
ENCODING 111
SWIDTH 503 0
DWIDTH 7 0
BBX 6 7 0 1
BITMAP
78
4C
C4
C4
C4
44
78
ENDCHAR
STARTCHAR p
ENCODING 112
SWIDTH 509 0
DWIDTH 7 0
BBX 7 13 0 -5
BITMAP
20
6C
36
22
22
26
3C
20
20
20
20
30
F8
ENDCHAR
STARTCHAR q
ENCODING 113
SWIDTH 505 0
DWIDTH 7 0
BBX 7 13 0 -6
BITMAP
7C
C8
88
C8
78
08
08
08
08
08
08
3C
06
ENDCHAR
STARTCHAR r
ENCODING 114
SWIDTH 414 0
DWIDTH 6 0
BBX 7 10 0 0
BITMAP
0C
32
F6
20
20
20
20
30
38
40
ENDCHAR
STARTCHAR s
ENCODING 115
SWIDTH 482 0
DWIDTH 7 0
BBX 7 10 0 -1
BITMAP
3C
24
28
30
18
4C
44
C6
C4
38
ENDCHAR
STARTCHAR t
ENCODING 116
SWIDTH 434 0
DWIDTH 6 0
BBX 6 11 0 0
BITMAP
10
10
30
F8
20
60
60
60
64
64
38
ENDCHAR
STARTCHAR u
ENCODING 117
SWIDTH 744 0
DWIDTH 10 0
BBX 10 7 0 0
BITMAP
2700
E100
2100
3100
31C0
1200
1C00
ENDCHAR
STARTCHAR v
ENCODING 118
SWIDTH 600 0
DWIDTH 8 0
BBX 8 9 0 0
BITMAP
10
E0
37
32
12
1C
0C
0C
08
ENDCHAR
STARTCHAR w
ENCODING 119
SWIDTH 745 0
DWIDTH 10 0
BBX 10 7 0 0
BITMAP
00C0
3480
E680
3A80
3B00
3100
1000
ENDCHAR
STARTCHAR x
ENCODING 120
SWIDTH 548 0
DWIDTH 8 0
BBX 8 9 0 0
BITMAP
18
F0
37
34
18
18
2C
6E
10
ENDCHAR
STARTCHAR y
ENCODING 121
SWIDTH 659 0
DWIDTH 9 0
BBX 9 13 0 -6
BITMAP
1000
2780
E180
6180
2100
3300
1D00
0100
0100
3A00
5A00
4400
3800
ENDCHAR
STARTCHAR z
ENCODING 122
SWIDTH 460 0
DWIDTH 6 0
BBX 6 7 0 0
BITMAP
FC
88
90
10
24
64
FC
ENDCHAR
STARTCHAR braceleft
ENCODING 123
SWIDTH 460 0
DWIDTH 6 0
BBX 6 17 1 -4
BITMAP
18
24
20
20
30
30
30
60
80
60
20
30
30
30
30
34
18
ENDCHAR
STARTCHAR bar
ENCODING 124
SWIDTH 368 0
DWIDTH 5 0
BBX 1 15 2 -3
BITMAP
80
80
80
80
80
80
80
80
80
80
80
80
80
80
80
ENDCHAR
STARTCHAR braceright
ENCODING 125
SWIDTH 476 0
DWIDTH 7 0
BBX 6 15 0 -4
BITMAP
70
B0
18
18
18
08
04
08
08
04
04
04
04
0C
18
ENDCHAR
STARTCHAR asciitilde
ENCODING 126
SWIDTH 733 0
DWIDTH 10 0
BBX 9 3 1 2
BITMAP
0080
7100
8E00
ENDCHAR
STARTCHAR nonbreakingspace
ENCODING 160
SWIDTH 270 0
DWIDTH 4 0
BBX 1 1 0 0
BITMAP
00
ENDCHAR
STARTCHAR exclamdown
ENCODING 161
SWIDTH 247 0
DWIDTH 3 0
BBX 2 15 1 -2
BITMAP
C0
C0
00
00
80
80
40
40
40
C0
C0
C0
C0
C0
C0
ENDCHAR
STARTCHAR cent
ENCODING 162
SWIDTH 799 0
DWIDTH 11 0
BBX 7 12 2 -3
BITMAP
40
20
38
64
E4
E4
D0
D2
74
38
08
08
ENDCHAR
STARTCHAR sterling
ENCODING 163
SWIDTH 799 0
DWIDTH 11 0
BBX 8 13 2 -1
BITMAP
1C
26
46
4C
60
60
78
B0
30
10
12
F9
EE
ENDCHAR
STARTCHAR currency
ENCODING 164
SWIDTH 732 0
DWIDTH 10 0
BBX 8 9 1 0
BITMAP
04
BC
46
82
82
C4
7C
43
80
ENDCHAR
STARTCHAR yen
ENCODING 165
SWIDTH 799 0
DWIDTH 11 0
BBX 10 15 0 -2
BITMAP
0800
F040
3B80
1900
1900
0E00
0E00
0600
1FC0
3780
0600
0600
0600
0F00
1000
ENDCHAR
STARTCHAR brokenbar
ENCODING 166
SWIDTH 341 0
DWIDTH 5 0
BBX 1 17 2 -4
BITMAP
80
80
80
80
80
80
00
00
80
80
80
80
80
80
80
80
80
ENDCHAR
STARTCHAR section
ENCODING 167
SWIDTH 546 0
DWIDTH 8 0
BBX 6 16 1 -4
BITMAP
38
44
4C
40
70
78
8C
84
C4
74
18
0C
04
04
64
38
ENDCHAR
STARTCHAR dieresis
ENCODING 168
SWIDTH 393 0
DWIDTH 6 0
BBX 3 2 1 9
BITMAP
80
A0
ENDCHAR
STARTCHAR copyright
ENCODING 169
SWIDTH 1023 0
DWIDTH 14 0
BBX 13 13 1 -2
BITMAP
0F80
3060
6210
4E18
9A08
9108
9108
9908
8E08
C010
4030
3060
1F80
ENDCHAR
STARTCHAR ordfeminine
ENCODING 170
SWIDTH 558 0
DWIDTH 8 0
BBX 6 7 1 4
BITMAP
60
90
90
70
94
94
EC
ENDCHAR
STARTCHAR guillemotleft
ENCODING 171
SWIDTH 608 0
DWIDTH 9 0
BBX 7 12 1 -3
BITMAP
02
14
14
14
24
48
CC
64
36
12
0A
08
ENDCHAR
STARTCHAR logicalnot
ENCODING 172
SWIDTH 616 0
DWIDTH 9 0
BBX 8 3 0 4
BITMAP
FF
01
01
ENDCHAR
STARTCHAR uni00AD
ENCODING 173
SWIDTH 436 0
DWIDTH 6 0
BBX 4 1 1 3
BITMAP
F0
ENDCHAR
STARTCHAR registered
ENCODING 174
SWIDTH 1048 0
DWIDTH 15 0
BBX 13 13 1 -3
BITMAP
0F80
3060
4010
5F10
8988
8908
8E08
8A48
8B48
7FD0
6030
3060
0F80
ENDCHAR
STARTCHAR macron
ENCODING 175
SWIDTH 382 0
DWIDTH 5 0
BBX 4 1 1 11
BITMAP
F0
ENDCHAR
STARTCHAR degree
ENCODING 176
SWIDTH 346 0
DWIDTH 5 0
BBX 4 3 1 11
BITMAP
E0
90
E0
ENDCHAR
STARTCHAR plusminus
ENCODING 177
SWIDTH 580 0
DWIDTH 8 0
BBX 7 6 1 2
BITMAP
10
10
FE
10
10
F8
ENDCHAR
STARTCHAR twosuperior
ENCODING 178
SWIDTH 365 0
DWIDTH 5 0
BBX 5 8 0 4
BITMAP
30
D0
10
10
20
C8
30
20
ENDCHAR
STARTCHAR threesuperior
ENCODING 179
SWIDTH 371 0
DWIDTH 5 0
BBX 4 7 1 5
BITMAP
E0
C0
60
90
90
90
60
ENDCHAR
STARTCHAR acute
ENCODING 180
SWIDTH 234 0
DWIDTH 3 0
BBX 2 3 1 11
BITMAP
40
80
80
ENDCHAR
STARTCHAR mu
ENCODING 181
SWIDTH 634 0
DWIDTH 9 0
BBX 8 12 1 -5
BITMAP
80
8C
84
84
CD
B5
83
80
C0
C0
C0
C0
ENDCHAR
STARTCHAR paragraph
ENCODING 182
SWIDTH 707 0
DWIDTH 10 0
BBX 9 17 0 -5
BITMAP
0180
3E00
F200
F200
F200
F200
7200
1200
1200
1200
1200
1200
1A00
1B00
1B80
1800
6000
ENDCHAR
STARTCHAR periodcentered
ENCODING 183
SWIDTH 238 0
DWIDTH 3 0
BBX 2 2 1 5
BITMAP
C0
C0
ENDCHAR
STARTCHAR cedilla
ENCODING 184
SWIDTH 332 0
DWIDTH 5 0
BBX 3 5 1 -3
BITMAP
C0
40
20
A0
E0
ENDCHAR
STARTCHAR onesuperior
ENCODING 185
SWIDTH 336 0
DWIDTH 5 0
BBX 4 6 0 6
BITMAP
20
60
A0
20
E0
30
ENDCHAR
STARTCHAR ordmasculine
ENCODING 186
SWIDTH 503 0
DWIDTH 7 0
BBX 6 6 0 5
BITMAP
78
8C
84
84
C4
78
ENDCHAR
STARTCHAR guillemotright
ENCODING 187
SWIDTH 778 0
DWIDTH 11 0
BBX 9 13 1 -4
BITMAP
1000
8800
8800
C600
7300
1D80
1300
2400
4C00
8800
9000
1000
1000
ENDCHAR
STARTCHAR onequarter
ENCODING 188
SWIDTH 876 0
DWIDTH 12 0
BBX 12 13 0 0
BITMAP
0040
2040
6080
A100
2100
E280
3480
0880
09A0
1260
23E0
2040
40F0
ENDCHAR
STARTCHAR onehalf
ENCODING 189
SWIDTH 762 0
DWIDTH 11 0
BBX 10 14 0 -1
BITMAP
0040
2040
6080
A100
2100
E200
3580
0AC0
08C0
1080
2100
2640
4180
0100
ENDCHAR
STARTCHAR threequarters
ENCODING 190
SWIDTH 922 0
DWIDTH 13 0
BBX 12 13 1 0
BITMAP
0040
E080
C080
6100
9200
9280
9480
6980
12A0
12A0
23E0
40C0
41F0
ENDCHAR
STARTCHAR questiondown
ENCODING 191
SWIDTH 571 0
DWIDTH 8 0
BBX 7 13 0 -2
BITMAP
18
18
00
10
10
10
30
6E
CE
C6
C2
E2
7C
ENDCHAR
STARTCHAR Agrave
ENCODING 192
SWIDTH 784 0
DWIDTH 11 0
BBX 11 17 0 -2
BITMAP
3000
1800
0800
0000
0400
3C00
0E00
1200
1300
1300
1F00
2380
2180
E180
30C0
00E0
0300
ENDCHAR
STARTCHAR Aacute
ENCODING 193
SWIDTH 784 0
DWIDTH 11 0
BBX 11 18 0 -2
BITMAP
0200
0400
0800
0000
0000
0400
3C00
0E00
1200
1300
1300
1F00
2380
2180
E180
30C0
00E0
0300
ENDCHAR
STARTCHAR Acircumflex
ENCODING 194
SWIDTH 784 0
DWIDTH 11 0
BBX 11 17 0 -2
BITMAP
0400
0A00
1100
0000
0400
3C00
0E00
1200
1300
1300
1F00
2380
2180
E180
30C0
00E0
0300
ENDCHAR
STARTCHAR Atilde
ENCODING 195
SWIDTH 784 0
DWIDTH 11 0
BBX 11 16 0 -2
BITMAP
1A00
2600
0000
0400
3C00
0E00
1200
1300
1300
1F00
2380
2180
E180
30C0
00E0
0300
ENDCHAR
STARTCHAR Adieresis
ENCODING 196
SWIDTH 784 0
DWIDTH 11 0
BBX 11 16 0 -2
BITMAP
0900
1B00
0000
0400
3C00
0E00
1200
1300
1300
1F00
2380
2180
E180
30C0
00E0
0300
ENDCHAR
STARTCHAR Aring
ENCODING 197
SWIDTH 784 0
DWIDTH 11 0
BBX 11 17 0 -2
BITMAP
0E00
0A00
0A00
0C00
0400
3C00
0E00
1200
1300
1300
1F00
2380
2180
E180
30C0
00E0
0300
ENDCHAR
STARTCHAR AE
ENCODING 198
SWIDTH 1172 0
DWIDTH 16 0
BBX 16 14 0 -2
BITMAP
0004
003C
07C4
00C4
0348
0248
0278
0469
07E9
0461
0863
107C
3040
F980
ENDCHAR
STARTCHAR Ccedilla
ENCODING 199
SWIDTH 742 0
DWIDTH 10 0
BBX 10 18 0 -6
BITMAP
0080
0080
1F80
7180
6080
C040
C000
C000
C040
E040
6040
7080
1F00
0400
0600
0200
0A00
0600
ENDCHAR
STARTCHAR Egrave
ENCODING 200
SWIDTH 557 0
DWIDTH 8 0
BBX 8 15 0 -1
BITMAP
60
30
10
06
FA
20
20
28
38
38
38
30
31
31
FF
ENDCHAR
STARTCHAR Eacute
ENCODING 201
SWIDTH 557 0
DWIDTH 8 0
BBX 8 16 0 -1
BITMAP
04
08
08
00
06
FA
20
20
28
38
38
38
30
31
31
FF
ENDCHAR
STARTCHAR Ecircumflex
ENCODING 202
SWIDTH 557 0
DWIDTH 8 0
BBX 8 16 0 -1
BITMAP
10
2C
46
00
06
FA
20
20
28
38
38
38
30
31
31
FF
ENDCHAR
STARTCHAR Edieresis
ENCODING 203
SWIDTH 557 0
DWIDTH 8 0
BBX 8 15 0 -1
BITMAP
36
36
00
06
FA
20
20
28
38
38
38
30
31
31
FF
ENDCHAR
STARTCHAR Igrave
ENCODING 204
SWIDTH 438 0
DWIDTH 6 0
BBX 8 18 -1 -3
BITMAP
10
18
08
04
7F
18
18
18
18
10
10
10
10
10
10
10
3C
C0
ENDCHAR
STARTCHAR Iacute
ENCODING 205
SWIDTH 438 0
DWIDTH 6 0
BBX 8 18 -1 -3
BITMAP
02
04
08
00
7F
18
18
18
18
10
10
10
10
10
10
10
3C
C0
ENDCHAR
STARTCHAR Icircumflex
ENCODING 206
SWIDTH 438 0
DWIDTH 6 0
BBX 8 18 -1 -3
BITMAP
08
14
22
00
7F
18
18
18
18
10
10
10
10
10
10
10
3C
C0
ENDCHAR
STARTCHAR Idieresis
ENCODING 207
SWIDTH 438 0
DWIDTH 6 0
BBX 8 18 -1 -3
BITMAP
12
36
00
00
7F
18
18
18
18
10
10
10
10
10
10
10
3C
C0
ENDCHAR
STARTCHAR Eth
ENCODING 208
SWIDTH 730 0
DWIDTH 10 0
BBX 10 12 0 -3
BITMAP
FF00
3380
21C0
21C0
20C0
F8C0
21C0
3180
3300
7C00
4000
8000
ENDCHAR
STARTCHAR Ntilde
ENCODING 209
SWIDTH 799 0
DWIDTH 11 0
BBX 11 15 0 -2
BITMAP
0680
0B80
0000
F1E0
3840
5C40
4E80
4780
4380
4180
4180
4080
2000
2000
F000
ENDCHAR
STARTCHAR Ograve
ENCODING 210
SWIDTH 747 0
DWIDTH 10 0
BBX 10 15 0 0
BITMAP
1000
0800
0400
0000
0000
1E00
6180
41C0
C0C0
C0C0
C0C0
C0C0
60C0
7180
1F00
ENDCHAR
STARTCHAR Oacute
ENCODING 211
SWIDTH 747 0
DWIDTH 10 0
BBX 10 15 0 0
BITMAP
0200
0400
0800
0000
0000
1E00
6180
41C0
C0C0
C0C0
C0C0
C0C0
60C0
7180
1F00
ENDCHAR
STARTCHAR Ocircumflex
ENCODING 212
SWIDTH 747 0
DWIDTH 10 0
BBX 10 14 0 0
BITMAP
0800
1600
2300
0000
1E00
6180
41C0
C0C0
C0C0
C0C0
C0C0
60C0
7180
1F00
ENDCHAR
STARTCHAR Otilde
ENCODING 213
SWIDTH 747 0
DWIDTH 10 0
BBX 10 14 0 0
BITMAP
1900
2600
0000
0000
1E00
6180
41C0
C0C0
C0C0
C0C0
C0C0
60C0
7180
1F00
ENDCHAR
STARTCHAR Odieresis
ENCODING 214
SWIDTH 747 0
DWIDTH 10 0
BBX 10 14 0 0
BITMAP
1B00
1B00
0000
0000
1E00
6180
41C0
C0C0
C0C0
C0C0
C0C0
60C0
7180
1F00
ENDCHAR
STARTCHAR multiply
ENCODING 215
SWIDTH 541 0
DWIDTH 8 0
BBX 6 8 1 0
BITMAP
04
88
50
20
50
48
80
80
ENDCHAR
STARTCHAR Oslash
ENCODING 216
SWIDTH 747 0
DWIDTH 10 0
BBX 10 13 0 -1
BITMAP
0040
0080
1E80
6380
4180
C2C0
C4C0
C8C0
D0C0
6080
6180
5E00
8000
ENDCHAR
STARTCHAR Ugrave
ENCODING 217
SWIDTH 690 0
DWIDTH 10 0
BBX 11 15 0 1
BITMAP
0800
0400
0200
0000
0000
1C00
F800
33E0
3080
3080
3080
3080
3080
1900
0E00
ENDCHAR
STARTCHAR Uacute
ENCODING 218
SWIDTH 690 0
DWIDTH 10 0
BBX 11 13 0 1
BITMAP
0080
0080
0100
1C00
F800
33E0
3080
3080
3080
3080
3080
1900
0E00
ENDCHAR
STARTCHAR Ucircumflex
ENCODING 219
SWIDTH 690 0
DWIDTH 10 0
BBX 11 13 0 1
BITMAP
0400
0B00
1180
1C00
F800
33E0
3080
3080
3080
3080
3080
1900
0E00
ENDCHAR
STARTCHAR Udieresis
ENCODING 220
SWIDTH 690 0
DWIDTH 10 0
BBX 11 14 0 1
BITMAP
0D80
0D80
0000
0000
1C00
F800
33E0
3080
3080
3080
3080
3080
1900
0E00
ENDCHAR
STARTCHAR Yacute
ENCODING 221
SWIDTH 796 0
DWIDTH 11 0
BBX 12 18 1 -2
BITMAP
0100
0100
0200
0000
1100
E0F0
6080
3100
1900
0E00
0600
0400
0600
0600
0600
0600
1E00
0100
ENDCHAR
STARTCHAR Thorn
ENCODING 222
SWIDTH 479 0
DWIDTH 7 0
BBX 6 14 1 -1
BITMAP
F0
40
40
78
4C
44
4C
78
40
40
40
40
40
F0
ENDCHAR
STARTCHAR germandbls
ENCODING 223
SWIDTH 591 0
DWIDTH 8 0
BBX 8 15 0 -2
BITMAP
70
98
88
88
90
A0
BC
4E
43
43
41
61
69
6E
80
ENDCHAR
STARTCHAR agrave
ENCODING 224
SWIDTH 527 0
DWIDTH 7 0
BBX 8 14 0 -1
BITMAP
40
60
10
00
70
58
48
68
0C
7C
CC
8C
F5
06
ENDCHAR
STARTCHAR aacute
ENCODING 225
SWIDTH 527 0
DWIDTH 7 0
BBX 8 14 0 -1
BITMAP
08
08
10
00
70
58
48
68
0C
7C
CC
8C
F5
06
ENDCHAR
STARTCHAR acircumflex
ENCODING 226
SWIDTH 527 0
DWIDTH 7 0
BBX 8 14 0 -1
BITMAP
10
28
44
00
70
58
48
68
0C
7C
CC
8C
F5
06
ENDCHAR
STARTCHAR atilde
ENCODING 227
SWIDTH 527 0
DWIDTH 7 0
BBX 8 12 0 -1
BITMAP
34
5C
70
58
48
68
0C
7C
CC
8C
F5
06
ENDCHAR
STARTCHAR adieresis
ENCODING 228
SWIDTH 527 0
DWIDTH 7 0
BBX 8 13 0 -1
BITMAP
40
50
00
70
58
48
68
0C
7C
CC
8C
F5
06
ENDCHAR
STARTCHAR aring
ENCODING 229
SWIDTH 527 0
DWIDTH 7 0
BBX 8 14 0 -1
BITMAP
18
28
28
18
70
58
48
68
0C
7C
CC
8C
F5
06
ENDCHAR
STARTCHAR ae
ENCODING 230
SWIDTH 700 0
DWIDTH 10 0
BBX 9 9 0 -1
BITMAP
0700
6880
9880
D180
3F00
D080
9880
AC80
6700
ENDCHAR
STARTCHAR ccedilla
ENCODING 231
SWIDTH 437 0
DWIDTH 6 0
BBX 6 12 0 -3
BITMAP
38
58
88
80
88
84
44
78
20
18
48
30
ENDCHAR
STARTCHAR egrave
ENCODING 232
SWIDTH 434 0
DWIDTH 6 0
BBX 6 12 0 1
BITMAP
60
20
10
00
00
38
4C
CC
F8
C4
C4
78
ENDCHAR
STARTCHAR eacute
ENCODING 233
SWIDTH 434 0
DWIDTH 6 0
BBX 6 11 0 1
BITMAP
08
08
10
00
38
4C
CC
F8
C4
C4
78
ENDCHAR
STARTCHAR ecircumflex
ENCODING 234
SWIDTH 434 0
DWIDTH 6 0
BBX 6 12 0 1
BITMAP
10
38
44
00
00
38
4C
CC
F8
C4
C4
78
ENDCHAR
STARTCHAR edieresis
ENCODING 235
SWIDTH 434 0
DWIDTH 6 0
BBX 6 10 0 1
BITMAP
40
50
00
38
4C
CC
F8
C4
C4
78
ENDCHAR
STARTCHAR igrave
ENCODING 236
SWIDTH 301 0
DWIDTH 4 0
BBX 4 12 0 1
BITMAP
80
40
20
00
E0
60
60
60
40
40
40
F0
ENDCHAR
STARTCHAR iacute
ENCODING 237
SWIDTH 301 0
DWIDTH 4 0
BBX 4 12 0 1
BITMAP
10
20
20
00
E0
60
60
60
40
40
40
F0
ENDCHAR
STARTCHAR icircumflex
ENCODING 238
SWIDTH 301 0
DWIDTH 4 0
BBX 6 12 -1 1
BITMAP
10
38
CC
00
70
30
30
30
20
20
20
78
ENDCHAR
STARTCHAR idieresis
ENCODING 239
SWIDTH 301 0
DWIDTH 4 0
BBX 4 11 0 1
BITMAP
80
A0
00
E0
60
60
60
40
40
40
F0
ENDCHAR
STARTCHAR eth
ENCODING 240
SWIDTH 476 0
DWIDTH 7 0
BBX 7 12 -1 -1
BITMAP
08
70
9C
24
06
02
3E
26
62
62
32
1C
ENDCHAR
STARTCHAR ntilde
ENCODING 241
SWIDTH 584 0
DWIDTH 8 0
BBX 8 12 0 -1
BITMAP
19
26
40
6E
F2
22
22
22
22
22
7E
01
ENDCHAR
STARTCHAR ograve
ENCODING 242
SWIDTH 400 0
DWIDTH 6 0
BBX 10 11 0 2
BITMAP
00C0
40C0
2040
1080
0080
0100
7E00
C800
8C00
C800
7800
ENDCHAR
STARTCHAR oacute
ENCODING 243
SWIDTH 400 0
DWIDTH 6 0
BBX 10 11 0 2
BITMAP
00C0
08C0
0840
1080
0080
0100
7E00
C800
8C00
C800
7800
ENDCHAR
STARTCHAR ocircumflex
ENCODING 244
SWIDTH 400 0
DWIDTH 6 0
BBX 10 11 0 2
BITMAP
00C0
10C0
3840
CC80
0080
0100
7E00
C800
8C00
C800
7800
ENDCHAR
STARTCHAR otilde
ENCODING 245
SWIDTH 400 0
DWIDTH 6 0
BBX 10 11 0 2
BITMAP
00C0
00C0
0040
3480
5C80
0100
7E00
C800
8C00
C800
7800
ENDCHAR
STARTCHAR odieresis
ENCODING 246
SWIDTH 400 0
DWIDTH 6 0
BBX 10 11 0 2
BITMAP
00C0
00C0
0040
4080
5080
0100
7E00
C800
8C00
C800
7800
ENDCHAR
STARTCHAR divide
ENCODING 247
SWIDTH 592 0
DWIDTH 8 0
BBX 7 6 1 2
BITMAP
30
00
00
FE
30
30
ENDCHAR
STARTCHAR oslash
ENCODING 248
SWIDTH 396 0
DWIDTH 6 0
BBX 5 8 0 0
BITMAP
10
78
E8
A8
C8
70
40
40
ENDCHAR
STARTCHAR ugrave
ENCODING 249
SWIDTH 744 0
DWIDTH 10 0
BBX 10 12 0 0
BITMAP
1800
0C00
0400
0000
0000
2700
E100
2100
3100
31C0
1200
1C00
ENDCHAR
STARTCHAR uacute
ENCODING 250
SWIDTH 744 0
DWIDTH 10 0
BBX 10 12 0 0
BITMAP
0200
0400
0800
0000
0000
2700
E100
2100
3100
31C0
1200
1C00
ENDCHAR
STARTCHAR ucircumflex
ENCODING 251
SWIDTH 744 0
DWIDTH 10 0
BBX 10 11 0 0
BITMAP
0800
1400
2200
0000
2700
E100
2100
3100
31C0
1200
1C00
ENDCHAR
STARTCHAR udieresis
ENCODING 252
SWIDTH 744 0
DWIDTH 10 0
BBX 10 10 0 0
BITMAP
1000
1400
0000
2700
E100
2100
3100
31C0
1200
1C00
ENDCHAR
STARTCHAR yacute
ENCODING 253
SWIDTH 659 0
DWIDTH 9 0
BBX 9 17 0 -6
BITMAP
0200
0200
0400
0000
1000
2780
E180
6180
2100
3300
1D00
0100
0100
3A00
5A00
4400
3800
ENDCHAR
STARTCHAR thorn
ENCODING 254
SWIDTH 514 0
DWIDTH 7 0
BBX 8 21 -1 -9
BITMAP
10
E0
20
20
20
20
3C
26
23
23
23
33
2E
20
30
30
30
30
30
30
7C
ENDCHAR
STARTCHAR ydieresis
ENCODING 255
SWIDTH 659 0
DWIDTH 9 0
BBX 9 16 0 -6
BITMAP
1000
1A00
0000
1000
2780
E180
6180
2100
3300
1D00
0100
0100
3A00
5A00
4400
3800
ENDCHAR
STARTCHAR dotlessi
ENCODING 305
SWIDTH 301 0
DWIDTH 4 0
BBX 4 8 0 1
BITMAP
E0
60
60
60
40
40
40
F0
ENDCHAR
STARTCHAR OE
ENCODING 338
SWIDTH 1132 0
DWIDTH 16 0
BBX 16 14 0 -2
BITMAP
0004
1EFC
61C4
40C0
C060
C064
C068
C078
6068
70E5
1F61
0063
007F
0180
ENDCHAR
STARTCHAR oe
ENCODING 339
SWIDTH 798 0
DWIDTH 11 0
BBX 11 6 0 1
BITMAP
71C0
CA40
8FA0
C620
C720
7BC0
ENDCHAR
STARTCHAR circumflex
ENCODING 710
SWIDTH 483 0
DWIDTH 7 0
BBX 5 3 1 10
BITMAP
20
50
88
ENDCHAR
STARTCHAR caron
ENCODING 711
SWIDTH 428 0
DWIDTH 6 0
BBX 4 4 1 10
BITMAP
10
A0
60
40
ENDCHAR
STARTCHAR ring
ENCODING 730
SWIDTH 330 0
DWIDTH 5 0
BBX 3 4 1 11
BITMAP
60
A0
A0
E0
ENDCHAR
STARTCHAR tilde
ENCODING 732
SWIDTH 433 0
DWIDTH 6 0
BBX 4 2 1 10
BITMAP
D0
B0
ENDCHAR
STARTCHAR mu.dup1
ENCODING 956
SWIDTH 634 0
DWIDTH 9 0
BBX 8 12 1 -5
BITMAP
80
8C
84
84
CD
B5
83
80
C0
C0
C0
C0
ENDCHAR
STARTCHAR endash
ENCODING 8211
SWIDTH 436 0
DWIDTH 6 0
BBX 4 1 1 3
BITMAP
F0
ENDCHAR
STARTCHAR emdash
ENCODING 8212
SWIDTH 651 0
DWIDTH 9 0
BBX 7 1 1 3
BITMAP
FE
ENDCHAR
STARTCHAR quoteleft
ENCODING 8216
SWIDTH 287 0
DWIDTH 4 0
BBX 2 5 1 7
BITMAP
40
80
C0
C0
C0
ENDCHAR
STARTCHAR quoteright
ENCODING 8217
SWIDTH 291 0
DWIDTH 4 0
BBX 3 5 1 6
BITMAP
C0
E0
60
20
40
ENDCHAR
STARTCHAR quotesinglbase
ENCODING 8218
SWIDTH 272 0
DWIDTH 4 0
BBX 2 5 1 -3
BITMAP
C0
C0
40
40
80
ENDCHAR
STARTCHAR quotedblleft
ENCODING 8220
SWIDTH 445 0
DWIDTH 6 0
BBX 5 5 1 6
BITMAP
60
98
90
D8
C0
ENDCHAR
STARTCHAR quotedblright
ENCODING 8221
SWIDTH 444 0
DWIDTH 6 0
BBX 5 5 1 7
BITMAP
D8
D8
48
50
A0
ENDCHAR
STARTCHAR quotedblbase
ENCODING 8222
SWIDTH 482 0
DWIDTH 7 0
BBX 5 6 1 -4
BITMAP
C0
D8
58
48
90
10
ENDCHAR
STARTCHAR bullet
ENCODING 8226
SWIDTH 351 0
DWIDTH 5 0
BBX 4 3 1 4
BITMAP
70
F0
F0
ENDCHAR
STARTCHAR guilsinglleft
ENCODING 8249
SWIDTH 465 0
DWIDTH 7 0
BBX 5 9 1 -1
BITMAP
10
10
20
60
C0
60
20
10
08
ENDCHAR
STARTCHAR guilsinglright
ENCODING 8250
SWIDTH 449 0
DWIDTH 6 0
BBX 5 9 1 -1
BITMAP
80
80
40
20
38
60
40
80
80
ENDCHAR
STARTCHAR fraction
ENCODING 8260
SWIDTH 406 0
DWIDTH 6 0
BBX 9 13 -2 0
BITMAP
0080
0080
0100
0200
0200
0400
0800
1000
1000
2000
4000
8000
8000
ENDCHAR
STARTCHAR foursuperior
ENCODING 8308
SWIDTH 473 0
DWIDTH 7 0
BBX 6 8 0 5
BITMAP
10
10
70
58
98
FC
18
3C
ENDCHAR
STARTCHAR Euro
ENCODING 8364
SWIDTH 799 0
DWIDTH 11 0
BBX 12 12 0 -1
BITMAP
0010
07D0
0C60
1820
3820
3700
7A00
3C00
F040
1840
1880
0F00
ENDCHAR
STARTCHAR minus
ENCODING 8722
SWIDTH 436 0
DWIDTH 6 0
BBX 4 1 1 3
BITMAP
F0
ENDCHAR
STARTCHAR f_f
ENCODING 64256
SWIDTH 467 0
DWIDTH 7 0
BBX 8 21 0 -5
BITMAP
18
2C
46
4B
53
56
50
50
7C
D0
50
50
58
48
6C
6E
68
30
20
30
F8
ENDCHAR
STARTCHAR .notdef
ENCODING -1
SWIDTH 270 0
DWIDTH 4 0
BBX 2 9 1 0
BITMAP
C0
C0
C0
C0
C0
C0
C0
C0
C0
ENDCHAR
STARTCHAR .null
ENCODING -1
SWIDTH 0 0
DWIDTH 0 0
BBX 1 1 0 0
BITMAP
00
ENDCHAR
STARTCHAR nonmarkingreturn
ENCODING -1
SWIDTH 270 0
DWIDTH 4 0
BBX 1 1 0 0
BITMAP
00
ENDCHAR
STARTCHAR dieresis.case
ENCODING -1
SWIDTH 393 0
DWIDTH 6 0
BBX 5 2 1 11
BITMAP
D8
D8
ENDCHAR
STARTCHAR o.cmp
ENCODING -1
SWIDTH 400 0
DWIDTH 6 0
BBX 10 11 0 2
BITMAP
00C0
00C0
0040
0080
0080
0100
7E00
C800
8C00
C800
7800
ENDCHAR
STARTCHAR n_n
ENCODING -1
SWIDTH 1024 0
DWIDTH 14 0
BBX 14 9 0 -1
BITMAP
6E00
F2C0
62F8
22C8
22CC
22C8
23F8
7E04
0100
ENDCHAR
STARTCHAR a_a
ENCODING -1
SWIDTH 911 0
DWIDTH 13 0
BBX 13 9 0 0
BITMAP
01C0
0260
7320
9020
D3E0
7720
D520
DBE8
EE38
ENDCHAR
STARTCHAR t_h
ENCODING -1
SWIDTH 854 0
DWIDTH 12 0
BBX 12 18 0 -3
BITMAP
0200
1E00
0200
1200
1200
FF00
3200
3200
22E0
2330
36D0
3650
1E90
0F30
0630
1F20
00F0
0010
ENDCHAR
STARTCHAR s_s
ENCODING -1
SWIDTH 654 0
DWIDTH 9 0
BBX 9 13 0 -2
BITMAP
0480
3B80
2480
2480
1600
0A00
0F00
8580
9580
E580
3980
1180
0F00
ENDCHAR
STARTCHAR t_t
ENCODING -1
SWIDTH 569 0
DWIDTH 8 0
BBX 7 13 0 -1
BITMAP
18
1A
3C
F0
70
50
50
56
5A
6E
60
26
1C
ENDCHAR
STARTCHAR e_e
ENCODING -1
SWIDTH 782 0
DWIDTH 11 0
BBX 11 8 0 0
BITMAP
7380
CE40
9440
E440
C6A0
63A0
3F20
01C0
ENDCHAR
STARTCHAR o_o
ENCODING -1
SWIDTH 751 0
DWIDTH 11 0
BBX 15 12 0 1
BITMAP
0006
0006
0002
0004
0004
3818
46E0
C440
8C40
8440
CF80
7800
ENDCHAR
STARTCHAR l_l
ENCODING -1
SWIDTH 573 0
DWIDTH 8 0
BBX 9 14 -1 -2
BITMAP
2200
6E00
A200
2200
2200
2200
2300
2300
3300
3300
3300
3380
F400
1800
ENDCHAR
STARTCHAR z_z
ENCODING -1
SWIDTH 875 0
DWIDTH 12 0
BBX 12 10 0 -1
BITMAP
1F00
0100
7E00
9A00
3600
2480
6FB0
C030
FC10
03E0
ENDCHAR
STARTCHAR j_j
ENCODING -1
SWIDTH 577 0
DWIDTH 8 0
BBX 9 19 -1 -9
BITMAP
0300
1B00
1800
0700
3F00
0D00
0D80
0580
0480
0480
0480
0480
E480
E480
8880
8880
7900
0D00
0E00
ENDCHAR
STARTCHAR f_b
ENCODING -1
SWIDTH 731 0
DWIDTH 10 0
BBX 11 18 -1 -2
BITMAP
0C00
1200
2600
2E00
2200
2E00
7200
A200
2200
2200
2200
23C0
2260
2260
27C0
2000
3800
4000
ENDCHAR
STARTCHAR f_k
ENCODING -1
SWIDTH 708 0
DWIDTH 10 0
BBX 9 16 0 -2
BITMAP
1000
7C00
3400
3C00
5000
5000
D800
5700
5400
5800
5800
5580
5480
5380
D800
7C00
ENDCHAR
STARTCHAR f_h
ENCODING -1
SWIDTH 873 0
DWIDTH 12 0
BBX 12 18 -1 -2
BITMAP
0C00
1200
2200
2F00
2200
2E00
3A00
E200
2200
2200
22E0
2360
2260
2260
2270
2E80
3900
4000
ENDCHAR
ENDFONT
